<svg xmlns="http://www.w3.org/2000/svg" xmlns:xlink="http://www.w3.org/1999/xlink" version="1.1" width="1000" height="1000" viewBox="0 0 1000 1000" xml:space="preserve">
<desc>Created with Fabric.js 3.5.0</desc>
<defs>
</defs>
<rect x="0" y="0" width="100%" height="100%" fill="#ffffff"/>
<g transform="matrix(0 45.4546 -45.4546 0 499.9998 500.0003)" id="249468">
<path style="stroke: none; stroke-width: 1; stroke-dasharray: none; stroke-linecap: butt; stroke-dashoffset: 0; stroke-linejoin: miter; stroke-miterlimit: 4; is-custom-font: none; font-file-url: none; fill: rgb(33,33,33); fill-rule: nonzero; opacity: 1;" vector-effect="non-scaling-stroke" transform=" translate(-9.5, -9.9995)" d="M -4.37114e-7 9.99951 C -1.95608e-7 15.5245 4.36167 19.9995 9.74107 19.9995 C 14.0457 19.9995 17.6962 17.1345 18.9832 13.162 C 19.0749 12.662 18.7734 12.4787 18.5148 12.4787 C 18.2835 12.4787 17.6706 12.487 16.8585 12.4912 C 17.4459 15.2728 15.5517 15.8595 15.5517 15.8595 C 14.4274 16.3145 14.1267 16.972 14.1267 16.972 C 13.5228 17.8778 13.5352 16.902 13.5352 16.902 C 13.603 15.8978 14.5389 15.3703 14.5389 15.3703 C 16.0283 14.4787 15.5979 13.0295 15.3493 12.4578 C 14.719 12.3678 14.2903 12.1103 14.0466 11.8245 C 13.8029 14.0453 12.9652 16.3795 9.23304 16.3795 C 8.16988 16.3795 7.30085 15.992 6.61933 15.3503 C 6.37316 15.4628 5.3827 15.8003 4.04116 15.2628 C 4.04116 15.2628 3.78012 14.4253 5.03988 12.5128 C 4.82345 11.7128 4.71606 10.8628 4.7111 10.0128 C 4.71606 9.16284 4.82345 8.31285 5.03988 7.51284 C 3.78012 5.61285 4.04116 4.77535 4.04116 4.77535 C 5.3827 4.23785 6.37316 4.57534 6.61933 4.67535 C 7.30085 4.03785 8.16988 3.65035 9.23304 3.65035 C 12.9752 3.65035 13.7987 5.98784 14.0383 8.21284 C 14.3307 7.86284 14.928 7.53784 15.8408 7.53784 C 17.1444 7.53784 18.1918 7.55034 18.5082 7.55034 C 18.7635 7.55034 19.0683 7.37534 18.9708 6.86284 C 17.692 2.86201 14.0391 -0.000488895 9.74107 -0.000488707 C 4.36167 -0.000488472 -6.7851e-7 4.47701 -4.37114e-7 9.99951 Z" stroke-linecap="round"/>
</g>
</svg>